<mxfile host="app.diagrams.net" agent="Mozilla/5.0 (Windows NT 10.0; Win64; x64) AppleWebKit/537.36 (KHTML, like Gecko) Chrome/138.0.0.0 Safari/537.36" version="28.0.9">
  <diagram name="Page-1" id="oBgj65NJ8FmxDW8-ONBG">
    <mxGraphModel dx="1224" dy="1102" grid="1" gridSize="10" guides="1" tooltips="1" connect="1" arrows="1" fold="1" page="1" pageScale="1" pageWidth="827" pageHeight="1169" math="0" shadow="0">
      <root>
        <mxCell id="0" />
        <mxCell id="1" parent="0" />
        <mxCell id="kWlE4ZonqjL30GbO6Ubc-9" style="edgeStyle=orthogonalEdgeStyle;rounded=0;orthogonalLoop=1;jettySize=auto;html=1;exitX=0.5;exitY=1;exitDx=0;exitDy=0;entryX=0.5;entryY=0;entryDx=0;entryDy=0;" parent="1" source="kWlE4ZonqjL30GbO6Ubc-2" target="kWlE4ZonqjL30GbO6Ubc-4" edge="1">
          <mxGeometry relative="1" as="geometry" />
        </mxCell>
        <mxCell id="kWlE4ZonqjL30GbO6Ubc-2" value="Main Loop" style="shape=label;double=1;rounded=1;whiteSpace=wrap;html=1;fillColor=#60a917;fontColor=#ffffff;strokeColor=#2D7600;" parent="1" vertex="1">
          <mxGeometry x="354" y="200" width="120" height="80" as="geometry" />
        </mxCell>
        <mxCell id="kWlE4ZonqjL30GbO6Ubc-5" style="edgeStyle=orthogonalEdgeStyle;rounded=0;orthogonalLoop=1;jettySize=auto;html=1;exitX=1;exitY=0.5;exitDx=0;exitDy=0;entryX=1;entryY=0.5;entryDx=0;entryDy=0;" parent="1" source="kWlE4ZonqjL30GbO6Ubc-4" target="kWlE4ZonqjL30GbO6Ubc-2" edge="1">
          <mxGeometry relative="1" as="geometry">
            <Array as="points">
              <mxPoint x="520" y="360" />
              <mxPoint x="520" y="240" />
            </Array>
          </mxGeometry>
        </mxCell>
        <mxCell id="kWlE4ZonqjL30GbO6Ubc-8" style="edgeStyle=orthogonalEdgeStyle;rounded=0;orthogonalLoop=1;jettySize=auto;html=1;exitX=0.5;exitY=1;exitDx=0;exitDy=0;" parent="1" source="kWlE4ZonqjL30GbO6Ubc-4" target="kWlE4ZonqjL30GbO6Ubc-7" edge="1">
          <mxGeometry relative="1" as="geometry" />
        </mxCell>
        <mxCell id="kWlE4ZonqjL30GbO6Ubc-4" value="Schedualed feeding time or Manual overide?" style="shape=label;double=1;rounded=1;whiteSpace=wrap;html=1;fillColor=#6a00ff;fontColor=#ffffff;strokeColor=#3700CC;" parent="1" vertex="1">
          <mxGeometry x="354" y="320" width="120" height="80" as="geometry" />
        </mxCell>
        <mxCell id="kWlE4ZonqjL30GbO6Ubc-6" value="NO" style="text;html=1;align=center;verticalAlign=middle;resizable=0;points=[];autosize=1;strokeColor=none;fillColor=none;" parent="1" vertex="1">
          <mxGeometry x="480" y="330" width="40" height="30" as="geometry" />
        </mxCell>
        <mxCell id="kWlE4ZonqjL30GbO6Ubc-18" style="edgeStyle=orthogonalEdgeStyle;rounded=0;orthogonalLoop=1;jettySize=auto;html=1;exitX=0.5;exitY=1;exitDx=0;exitDy=0;entryX=0.5;entryY=0;entryDx=0;entryDy=0;" parent="1" source="kWlE4ZonqjL30GbO6Ubc-7" target="kWlE4ZonqjL30GbO6Ubc-12" edge="1">
          <mxGeometry relative="1" as="geometry" />
        </mxCell>
        <mxCell id="kWlE4ZonqjL30GbO6Ubc-7" value="Dispense Food" style="shape=label;double=1;rounded=1;whiteSpace=wrap;html=1;fillColor=#1ba1e2;fontColor=#ffffff;strokeColor=#006EAF;" parent="1" vertex="1">
          <mxGeometry x="354" y="430" width="120" height="80" as="geometry" />
        </mxCell>
        <mxCell id="kWlE4ZonqjL30GbO6Ubc-24" style="edgeStyle=orthogonalEdgeStyle;rounded=0;orthogonalLoop=1;jettySize=auto;html=1;exitX=0.5;exitY=1;exitDx=0;exitDy=0;entryX=0.5;entryY=0;entryDx=0;entryDy=0;" parent="1" source="kWlE4ZonqjL30GbO6Ubc-12" target="kWlE4ZonqjL30GbO6Ubc-23" edge="1">
          <mxGeometry relative="1" as="geometry" />
        </mxCell>
        <mxCell id="kWlE4ZonqjL30GbO6Ubc-32" style="edgeStyle=orthogonalEdgeStyle;rounded=0;orthogonalLoop=1;jettySize=auto;html=1;exitX=0;exitY=0.5;exitDx=0;exitDy=0;entryX=0.75;entryY=1;entryDx=0;entryDy=0;" parent="1" source="kWlE4ZonqjL30GbO6Ubc-12" target="kWlE4ZonqjL30GbO6Ubc-31" edge="1">
          <mxGeometry relative="1" as="geometry" />
        </mxCell>
        <mxCell id="kWlE4ZonqjL30GbO6Ubc-12" value="Check for Errors" style="shape=label;double=1;rounded=1;whiteSpace=wrap;html=1;fillColor=#e51400;fontColor=#ffffff;strokeColor=#B20000;" parent="1" vertex="1">
          <mxGeometry x="354" y="545" width="120" height="80" as="geometry" />
        </mxCell>
        <mxCell id="kWlE4ZonqjL30GbO6Ubc-20" value="NO Errors" style="text;html=1;align=center;verticalAlign=middle;resizable=0;points=[];autosize=1;strokeColor=none;fillColor=none;" parent="1" vertex="1">
          <mxGeometry x="275" y="585" width="80" height="30" as="geometry" />
        </mxCell>
        <mxCell id="kWlE4ZonqjL30GbO6Ubc-26" style="edgeStyle=orthogonalEdgeStyle;rounded=0;orthogonalLoop=1;jettySize=auto;html=1;exitX=0.5;exitY=1;exitDx=0;exitDy=0;entryX=0.5;entryY=0;entryDx=0;entryDy=0;" parent="1" source="kWlE4ZonqjL30GbO6Ubc-23" target="kWlE4ZonqjL30GbO6Ubc-25" edge="1">
          <mxGeometry relative="1" as="geometry" />
        </mxCell>
        <mxCell id="kWlE4ZonqjL30GbO6Ubc-23" value="Alert Staff" style="shape=label;double=1;rounded=1;whiteSpace=wrap;html=1;fillColor=#1ba1e2;fontColor=#ffffff;strokeColor=#006EAF;" parent="1" vertex="1">
          <mxGeometry x="354" y="660" width="120" height="80" as="geometry" />
        </mxCell>
        <mxCell id="kWlE4ZonqjL30GbO6Ubc-30" style="edgeStyle=orthogonalEdgeStyle;rounded=0;orthogonalLoop=1;jettySize=auto;html=1;exitX=0.5;exitY=1;exitDx=0;exitDy=0;entryX=0.5;entryY=0;entryDx=0;entryDy=0;" parent="1" source="kWlE4ZonqjL30GbO6Ubc-25" target="kWlE4ZonqjL30GbO6Ubc-29" edge="1">
          <mxGeometry relative="1" as="geometry" />
        </mxCell>
        <mxCell id="kWlE4ZonqjL30GbO6Ubc-33" style="edgeStyle=orthogonalEdgeStyle;rounded=0;orthogonalLoop=1;jettySize=auto;html=1;exitX=0;exitY=0.5;exitDx=0;exitDy=0;entryX=0.25;entryY=1;entryDx=0;entryDy=0;" parent="1" source="kWlE4ZonqjL30GbO6Ubc-25" target="kWlE4ZonqjL30GbO6Ubc-31" edge="1">
          <mxGeometry relative="1" as="geometry" />
        </mxCell>
        <mxCell id="kWlE4ZonqjL30GbO6Ubc-25" value="Too many errors?" style="shape=label;double=1;rounded=1;whiteSpace=wrap;html=1;fillColor=#6a00ff;fontColor=#ffffff;strokeColor=#3700CC;" parent="1" vertex="1">
          <mxGeometry x="354" y="770" width="120" height="80" as="geometry" />
        </mxCell>
        <mxCell id="kWlE4ZonqjL30GbO6Ubc-28" value="NO" style="text;html=1;align=center;verticalAlign=middle;resizable=0;points=[];autosize=1;strokeColor=none;fillColor=none;" parent="1" vertex="1">
          <mxGeometry x="295" y="780" width="40" height="30" as="geometry" />
        </mxCell>
        <mxCell id="kWlE4ZonqjL30GbO6Ubc-29" value="&quot;Shutdown&quot; and wait for staff intervention" style="shape=label;double=1;rounded=1;whiteSpace=wrap;html=1;fillColor=#1ba1e2;fontColor=#ffffff;strokeColor=#006EAF;" parent="1" vertex="1">
          <mxGeometry x="354" y="880" width="120" height="80" as="geometry" />
        </mxCell>
        <mxCell id="kWlE4ZonqjL30GbO6Ubc-34" style="edgeStyle=orthogonalEdgeStyle;rounded=0;orthogonalLoop=1;jettySize=auto;html=1;exitX=1;exitY=0.5;exitDx=0;exitDy=0;entryX=0;entryY=0.5;entryDx=0;entryDy=0;" parent="1" source="kWlE4ZonqjL30GbO6Ubc-31" target="kWlE4ZonqjL30GbO6Ubc-2" edge="1">
          <mxGeometry relative="1" as="geometry" />
        </mxCell>
        <mxCell id="kWlE4ZonqjL30GbO6Ubc-31" value="Write a log entry" style="shape=label;double=1;rounded=1;whiteSpace=wrap;html=1;fillColor=#e51400;fontColor=#ffffff;strokeColor=#B20000;" parent="1" vertex="1">
          <mxGeometry x="200" y="200" width="120" height="80" as="geometry" />
        </mxCell>
        <mxCell id="kWlE4ZonqjL30GbO6Ubc-35" value="YES" style="text;html=1;align=center;verticalAlign=middle;resizable=0;points=[];autosize=1;strokeColor=none;fillColor=none;" parent="1" vertex="1">
          <mxGeometry x="410" y="400" width="50" height="30" as="geometry" />
        </mxCell>
        <mxCell id="nDRdrSAUVWPG-2b2WHjd-1" value="Errors Present" style="text;html=1;align=center;verticalAlign=middle;resizable=0;points=[];autosize=1;strokeColor=none;fillColor=none;" parent="1" vertex="1">
          <mxGeometry x="414" y="630" width="100" height="30" as="geometry" />
        </mxCell>
        <mxCell id="nDRdrSAUVWPG-2b2WHjd-2" value="YES&lt;div&gt;&lt;br&gt;&lt;/div&gt;" style="text;html=1;align=center;verticalAlign=middle;resizable=0;points=[];autosize=1;strokeColor=none;fillColor=none;" parent="1" vertex="1">
          <mxGeometry x="419" y="850" width="50" height="40" as="geometry" />
        </mxCell>
        <mxCell id="Krdc8os9g0dGwnG3XNIB-2" style="edgeStyle=orthogonalEdgeStyle;rounded=0;orthogonalLoop=1;jettySize=auto;html=1;exitX=0.5;exitY=1;exitDx=0;exitDy=0;entryX=0.5;entryY=0;entryDx=0;entryDy=0;" edge="1" parent="1" source="Krdc8os9g0dGwnG3XNIB-1" target="kWlE4ZonqjL30GbO6Ubc-2">
          <mxGeometry relative="1" as="geometry" />
        </mxCell>
        <mxCell id="Krdc8os9g0dGwnG3XNIB-1" value="Start Up and Config" style="shape=label;double=1;rounded=1;whiteSpace=wrap;html=1;fillColor=#60a917;fontColor=#ffffff;strokeColor=#2D7600;" vertex="1" parent="1">
          <mxGeometry x="354" y="80" width="120" height="80" as="geometry" />
        </mxCell>
      </root>
    </mxGraphModel>
  </diagram>
</mxfile>
